<?xml version="1.0" encoding="utf-8"?>
<!-- Generator: Adobe Illustrator 19.0.0, SVG Export Plug-In . SVG Version: 6.00 Build 0)  -->
<svg version="1.1" id="Layer_1" xmlns="http://www.w3.org/2000/svg" xmlns:xlink="http://www.w3.org/1999/xlink" x="0px" y="0px"
	 viewBox="0 0 1920 1080" style="enable-background:new 0 0 1920 1080;" xml:space="preserve">
<style type="text/css">
	.st0{fill:#FAA758;}
	.st1{fill:#FAA857;}
	.st2{fill:#FFFFFF;}
	.st3{fill:#FAA75A;}
	.st4{fill:#FCB95A;stroke:#000000;stroke-miterlimit:10;}
	.st5{fill:#F6B8D4;stroke:#010101;stroke-width:0.6;stroke-miterlimit:10;}
	.st6{fill:#F6B8D4;stroke:#010101;stroke-width:2;stroke-miterlimit:10;}
	.st7{fill:#E9343A;stroke:#010101;stroke-width:1.2;stroke-miterlimit:10;}
	.st8{fill:none;stroke:#010101;stroke-width:0.4;stroke-miterlimit:10;}
	.st9{font-family:'SourceSansPro-Semibold';}
	.st10{font-size:36px;}
	.st11{font-family:'SourceSansPro-Regular';}
	.st12{font-size:31px;}
	.st13{font-size:29px;}
	.st14{fill:#CF2027;stroke:#000000;stroke-width:0.5;stroke-miterlimit:10;}
	.st15{fill:none;stroke:#010101;stroke-width:0.8;stroke-miterlimit:10;stroke-dasharray:20;}
	.st16{fill:#FCB95A;}
	.st17{fill:#173246;}
</style>
<g id="XMLID_53_">
	<ellipse id="XMLID_9_" class="st0" cx="49.3" cy="832.4" rx="20.4" ry="20.4"/>
	<circle id="XMLID_14_" class="st1" cx="108.4" cy="754.8" r="13.2"/>
	<path id="XMLID_3_" class="st0" d="M118.9,788.9l-26.2-25c-1.9-1.8-6.3-2.9-8.5-0.6l-1.4,1.4c-1.6,2.5-1.4,6.1,1.1,8.5l26.2,25
		c2.4,2.3,6.3,2.4,8.5,0.7l1-1C121.7,795.5,121.3,791.2,118.9,788.9z"/>
	<path id="XMLID_4_" class="st0" d="M90.4,815.5l-21.9-17c-1.6-1.3-5.4-1.3-7.3,1.2l-1.2,1.5c-1.4,2.6-1.3,5.8,0.7,7.4l21.9,17
		c2,1.6,5.3,0.9,7.3-1.2l0.9-1.1C92.7,820.8,92.4,817,90.4,815.5z"/>
	<path id="XMLID_5_" class="st0" d="M87,847.2l5-27.2c0.4-2-1.3-5.4-4.4-5.9l-1.9-0.4c-2.9-0.1-5.7,1.5-6.2,4l-5,27.2
		c-0.5,2.5,1.7,5.1,4.4,5.9l1.4,0.3C83.3,851.6,86.5,849.7,87,847.2z"/>
	<path id="XMLID_13_" class="st0" d="M62.1,797.6l19-30.8c0,0,2.6-3.9,7.4-2.3c4.5,2.5,5.7,3.4,5.7,3.4l4.9,3c0,0,3.9,2.7,2.3,7.3
		c-0.1,0.4-0.3,0.9-0.6,1.5c-1.1,1.9-2.9,4.6-2.9,4.6l-15.4,25c0,0-2.8,6.2-8.9,3.5c-5.7-3.5-10.5-6.5-10.5-6.5s-3.3-2.5-1.9-6.9
		C62.1,797.6,62.1,797.6,62.1,797.6z"/>
	<ellipse id="XMLID_11_" class="st0" cx="120" cy="832.4" rx="20.4" ry="20.4"/>
	<ellipse id="XMLID_12_" class="st2" cx="120" cy="832.4" rx="16.4" ry="16.4"/>
	<ellipse id="XMLID_10_" class="st2" cx="49.4" cy="832.4" rx="16.4" ry="16.4"/>
	<polygon id="XMLID_8_" class="st0" points="49.5,836.7 46.4,836 53.5,807.8 56.6,808.5 	"/>
	<rect id="XMLID_7_" x="46.8" y="833.4" class="st0" width="35.8" height="3.2"/>
	
		<rect id="XMLID_6_" x="52.9" y="808.1" transform="matrix(0.9993 3.646529e-02 -3.646529e-02 0.9993 29.6457 -2.6127)" class="st0" width="67.1" height="6.6"/>
	<path id="XMLID_15_" class="st0" d="M117.4,823.2l1.6,10.5c0,0,0.3,1.7,1.9,1.7c1.6,0,2.6-0.6,2.6-0.6s0.8-0.6,0.8-1.7
		s-5.4-36.4-5.4-36.4s-0.3-1.3-1.8-1.5c-1.5,0.2-2.1,0.4-2.1,0.4s-1.2,0.5-1.4,1.8C113.9,798.7,117.4,823.2,117.4,823.2z"/>
	<path id="XMLID_16_" class="st1" d="M100.1,833.7l-10.4,2.4c-0.8,0.2-1.7-0.3-1.9-1.2l0,0c-0.2-0.8,0.3-1.7,1.2-1.9l10.4-2.4
		c0.8-0.2,1.7,0.3,1.9,1.2l0,0C101.5,832.7,101,833.5,100.1,833.7z"/>
</g>
<g id="XMLID_26_">
	<ellipse id="XMLID_199_" class="st0" cx="1685.7" cy="871.4" rx="20.4" ry="20.4"/>
	<circle id="XMLID_198_" class="st1" cx="1744.7" cy="793.8" r="13.2"/>
	<path id="XMLID_133_" class="st0" d="M1755.2,827.9l-26.2-25c-1.9-1.8-6.3-2.9-8.5-0.6l-1.4,1.4c-1.6,2.5-1.4,6.1,1.1,8.5l26.2,25
		c2.4,2.3,6.3,2.4,8.5,0.7l1-1C1758.1,834.4,1757.6,830.2,1755.2,827.9z"/>
	<path id="XMLID_113_" class="st0" d="M1726.7,854.4l-21.9-17c-1.6-1.3-5.4-1.3-7.3,1.2l-1.2,1.5c-1.4,2.6-1.3,5.8,0.7,7.4l21.9,17
		c2,1.6,5.3,0.9,7.3-1.2l0.9-1.1C1729,859.8,1728.7,856,1726.7,854.4z"/>
	<path id="XMLID_110_" class="st0" d="M1723.3,886.1l5-27.2c0.4-2-1.3-5.4-4.4-5.9l-1.9-0.4c-2.9-0.1-5.7,1.5-6.2,4l-5,27.2
		c-0.5,2.5,1.7,5.1,4.4,5.9l1.4,0.3C1719.6,890.6,1722.8,888.7,1723.3,886.1z"/>
	<path id="XMLID_108_" class="st0" d="M1698.4,836.6l19-30.8c0,0,2.6-3.9,7.4-2.3c4.5,2.5,5.7,3.4,5.7,3.4l4.9,3
		c0,0,3.9,2.7,2.3,7.3c-0.1,0.4-0.3,0.9-0.6,1.5c-1.1,1.9-2.9,4.6-2.9,4.6l-15.4,25c0,0-2.8,6.2-8.9,3.5c-5.7-3.5-10.5-6.5-10.5-6.5
		s-3.3-2.5-1.9-6.9C1698.4,836.6,1698.4,836.6,1698.4,836.6z"/>
	<ellipse id="XMLID_103_" class="st0" cx="1756.3" cy="871.4" rx="20.4" ry="20.4"/>
	<ellipse id="XMLID_56_" class="st2" cx="1756.4" cy="871.4" rx="16.4" ry="16.4"/>
	<ellipse id="XMLID_52_" class="st2" cx="1685.7" cy="871.4" rx="16.4" ry="16.4"/>
	<polygon id="XMLID_51_" class="st0" points="1685.8,875.7 1682.7,875 1689.8,846.7 1692.9,847.5 	"/>
	<rect id="XMLID_41_" x="1683.1" y="872.4" class="st0" width="35.8" height="3.2"/>
	
		<rect id="XMLID_40_" x="1689.2" y="847.1" transform="matrix(0.9993 3.646529e-02 -3.646529e-02 0.9993 32.1556 -62.2556)" class="st0" width="67.1" height="6.6"/>
	<path id="XMLID_39_" class="st0" d="M1753.8,862.1l1.6,10.5c0,0,0.3,1.7,1.9,1.7c1.6,0,2.6-0.6,2.6-0.6s0.8-0.6,0.8-1.7
		c0-1.1-5.4-36.4-5.4-36.4s-0.3-1.3-1.8-1.5c-1.5,0.2-2.1,0.4-2.1,0.4s-1.2,0.5-1.4,1.8C1750.2,837.7,1753.8,862.1,1753.8,862.1z"/>
	<path id="XMLID_38_" class="st1" d="M1736.4,872.7l-10.4,2.4c-0.8,0.2-1.7-0.3-1.9-1.2l0,0c-0.2-0.8,0.3-1.7,1.2-1.9l10.4-2.4
		c0.8-0.2,1.7,0.3,1.9,1.2l0,0C1737.8,871.6,1737.3,872.5,1736.4,872.7z"/>
</g>
<g id="XMLID_54_">
	<circle id="XMLID_24_" class="st1" cx="538.9" cy="28.8" r="13.2"/>
	<rect id="XMLID_27_" x="467.2" y="44.9" class="st0" width="140.6" height="3.9"/>
	<rect id="XMLID_25_" x="604.9" y="42.3" class="st0" width="5.9" height="9.1"/>
	<path id="XMLID_17_" class="st0" d="M578.7,80.6l-19.9-27.3c-2.2-2.4-4.8-3-8.3-1.5l-2,2.2c-1.2,1.9-1.4,4.1,0.2,6.9l19.9,27.4
		c2,2.8,5.8,3.3,8.2,1.9l1.4-1.1C580.4,87,580.7,83.3,578.7,80.6z"/>
	<path id="XMLID_23_" class="st0" d="M567.5,82.7l13.6-34.5c0,0,1.8-4.1,6.7-3.9c4.2,1.1,4.6,3.2,4.8,3.5c0.2,0.3,1.7,2.1,0,6.1
		c-1.7,4-12.6,31.5-12.8,32c-0.1,0.5-0.8,3.9-5.2,4.9c-4.5,0-6.2-2.6-6.2-2.6S566.9,87.1,567.5,82.7z"/>
	<path id="XMLID_18_" class="st0" d="M496.5,81.5L516.1,54c2.2-2.4,4.8-3,8.3-1.6l2,2.2c1.2,1.9,1.4,4.1-0.1,6.9l-19.7,27.5
		c-2,2.8-5.8,3.4-8.1,1.9l-1.4-1C494.8,87.9,494.5,84.2,496.5,81.5z"/>
	<path id="XMLID_21_" class="st0" d="M507.6,83.5l-13.8-34.4c0,0-1.8-4.8-7.1-4.3c-4.2,0.9-4.7,3.7-4.9,4c-0.2,0.3-1.2,2.2,0.5,6.2
		c1.7,4,12.9,31.4,13,31.9c0.1,0.5,0.9,3.9,5.2,4.9c4.5,0,6.1-2.6,6.1-2.6S508.3,88,507.6,83.5z"/>
	<path id="XMLID_20_" class="st0" d="M512.9,147.9l8.9-38.1c0,0,1.6-5.1,6.1-5.2c4.5-0.1,6,4.9,6,4.9s0.8,1.2,0,5
		c-0.8,3.8-8.8,37.7-8.8,37.7s-1.7,5-6.5,4.5c-3-0.8-4.7-2.2-5.2-4.6C512.7,149.3,512.9,147.9,512.9,147.9z"/>
	<path id="XMLID_22_" class="st0" d="M553.1,151.6l-9.3-38c0,0-0.9-5.3,3.1-7.4c3.9-2.1,7.6,1.7,7.6,1.7s1.2,0.8,2.3,4.5
		s9.1,37.6,9.1,37.6s0.7,5.3-3.8,6.9c-3.1,0.7-5.2,0.2-6.7-1.7C553.5,153,553.1,151.6,553.1,151.6z"/>
	<rect id="XMLID_19_" x="520.9" y="51.4" class="st0" width="36" height="61.6"/>
</g>
<g id="XMLID_55_">
	<circle id="XMLID_35_" class="st1" cx="1498.6" cy="793.4" r="13.2"/>
	<path id="XMLID_34_" class="st0" d="M1473.3,908.3l8.9-38.1c0,0,1.6-5.1,6.1-5.2c4.5-0.1,6,4.9,6,4.9s0.8,1.2,0,5
		c-0.8,3.8-8.8,37.7-8.8,37.7s-1.7,5-6.5,4.5c-3-0.8-4.7-2.2-5.2-4.6C1473,909.7,1473.3,908.3,1473.3,908.3z"/>
	<path id="XMLID_33_" class="st0" d="M1513.4,912.1l-9.3-38c0,0-0.9-5.3,3.1-7.4c3.9-2.1,7.6,1.7,7.6,1.7s1.2,0.8,2.3,4.5
		c1,3.7,9.1,37.6,9.1,37.6s0.7,5.3-3.8,6.9c-3.1,0.7-5.2,0.2-6.7-1.7C1513.8,913.5,1513.4,912.1,1513.4,912.1z"/>
	<path id="XMLID_28_" class="st3" d="M1456.9,831.2l23.6-19c2.5-1.5,5-1.3,7.9,1.1l1.4,2.6c0.7,2.1,0.5,4.2-1.5,6.3l-23.7,19.1
		c-2.4,1.9-6,1.3-7.8-0.7l-1-1.4C1454,836.5,1454.5,833.1,1456.9,831.2z"/>
	<path id="XMLID_29_" class="st3" d="M1452.3,808l14.7,26c1.1,2.7,0.4,5.1-2.4,7.5l-2.8,0.9c-2.1,0.3-4.2-0.2-5.9-2.5l-14.7-26
		c-1.5-2.6-0.2-6,2-7.5l1.5-0.8C1447.6,804.4,1450.9,805.4,1452.3,808z"/>
	<polygon id="XMLID_32_" class="st3" points="1450.7,805.1 1481.2,760.3 1490.2,769.1 1453,806.4 	"/>
	<polygon id="XMLID_31_" class="st3" points="1439.1,815.8 1443,819.5 1440.3,822.4 1436.4,818.7 	"/>
	<rect id="XMLID_30_" x="1480.6" y="811.5" class="st3" width="36.3" height="61.5"/>
	<circle id="XMLID_36_" class="st1" cx="1490.6" cy="760.2" r="5.6"/>
</g>
<g id="XMLID_37_">
	<circle id="XMLID_49_" class="st1" cx="80.9" cy="472.2" r="13.2"/>
	<path id="XMLID_50_" class="st1" d="M121,520.1l-1,0.9c-2.3,2-5.9,1.8-7.9-0.5L92.8,499c-2-2.3-1.8-5.9,0.5-7.9l1-0.9
		c2.3-2,5.9-1.8,7.9,0.5l19.2,21.6C123.5,514.5,123.3,518.1,121,520.1z"/>
	<path id="XMLID_48_" class="st1" d="M107,571.3l-33.3-10c-2.8-1.2-4.5-4.3-4-7.1l0.5-1.4c1.2-2.6,3.9-4.2,7.1-3.6l33.3,10
		c2.8,1.1,4.1,4.2,3.8,6.6l-0.3,1.6l-1.1,1.6C112.1,571,109.6,571.6,107,571.3z"/>
	<path id="XMLID_46_" class="st1" d="M60.2,570.5l-28.4,18.5c-2.3,1.9-3.4,5.2-1.7,7.9l0.7,1.1c1.7,2.6,5.2,3.4,7.9,1.7l28.4-18.5
		c2.6-1.7,3.4-5.2,1.7-7.9l-0.7-1.1C66.4,569.5,62.9,568.8,60.2,570.5z"/>
	<path id="XMLID_47_" class="st1" d="M59.5,497.6l-19.7,27.6c-1.5,2-1.7,6.3,0.8,8.1l1.5,1.1c2.7,1.2,6.2,0.6,8-1.9L69.8,505
		c1.8-2.5,1.2-6.2-0.8-8.2l-1.1-0.8C65.4,494.2,61.3,495.1,59.5,497.6z"/>
	<path id="XMLID_45_" class="st1" d="M67.8,541.2l-10.2,32.3c-0.8,2.4,0.3,6.6,3.3,7.5l1.8,0.6c2.9,0.3,6.1-1.3,7-4.3L79.9,545
		c0.9-3-0.7-6.3-3.3-7.5l-1.3-0.4C72.4,536.1,68.8,538.2,67.8,541.2z"/>
	<path id="XMLID_42_" class="st1" d="M101.7,564l-13.5,31c-1,2.3-0.4,6.6,2.5,7.8l1.8,0.8c2.9,0.6,6.2-0.6,7.4-3.5l13.5-31
		c1.3-2.9-0.1-6.3-2.5-7.8l-1.3-0.6C106.8,559.4,103,561.1,101.7,564z"/>
	<path id="XMLID_44_" class="st1" d="M96.2,488.5L63,495.2c-2.5,0.5-5.6,3.5-5,6.5l0.4,1.9c1.1,2.7,4.1,4.7,7.1,4l33.2-6.7
		c3.1-0.6,5.2-3.7,5-6.5l-0.3-1.4C102.8,490,99.3,487.9,96.2,488.5z"/>
	<path id="XMLID_43_" class="st1" d="M129.2,495.8l-18.7,16.4c-1.4,1.2-1.9,4.7,0.2,7l1.3,1.5c2.2,1.9,5.2,2.6,7,1.1l18.7-16.4
		c1.7-1.5,1.5-4.7-0.1-7.1l-0.9-1.1C134.5,494.9,130.9,494.2,129.2,495.8z"/>
	<rect id="XMLID_57_" x="62.9" y="498.1" class="st1" width="36" height="57.9"/>
</g>
<g id="XMLID_105_">
	<circle id="XMLID_126_" class="st1" cx="535.8" cy="212.2" r="13.2"/>
	<path id="XMLID_125_" class="st1" d="M575.9,260.2l-1,0.9c-2.3,2-5.9,1.8-7.9-0.5l-19.2-21.6c-2-2.3-1.8-5.9,0.5-7.9l1-0.9
		c2.3-2,5.9-1.8,7.9,0.5l19.2,21.6C578.4,254.5,578.2,258.1,575.9,260.2z"/>
	<path id="XMLID_117_" class="st1" d="M561.9,311.4l-33.3-10c-2.8-1.2-4.5-4.3-4-7.1l0.5-1.4c1.2-2.6,3.9-4.2,7.1-3.6l33.3,10
		c2.8,1.1,4.1,4.2,3.8,6.6l-0.3,1.6L568,309C567,311,564.5,311.6,561.9,311.4z"/>
	<path id="XMLID_115_" class="st1" d="M515.2,310.5L486.8,329c-2.3,1.9-3.4,5.2-1.7,7.9l0.7,1.1c1.7,2.6,5.2,3.4,7.9,1.7l28.4-18.5
		c2.6-1.7,3.4-5.2,1.7-7.9l-0.7-1.1C521.4,309.5,517.8,308.8,515.2,310.5z"/>
	<path id="XMLID_114_" class="st1" d="M514.4,237.6l-19.7,27.6c-1.5,2-1.7,6.3,0.8,8.1l1.5,1.1c2.7,1.2,6.2,0.6,8-1.9l19.7-27.6
		c1.8-2.5,1.2-6.2-0.8-8.2l-1.1-0.8C520.3,234.2,516.3,235.1,514.4,237.6z"/>
	<path id="XMLID_112_" class="st1" d="M522.8,281.2l-10.2,32.3c-0.8,2.4,0.3,6.6,3.3,7.5l1.8,0.6c2.9,0.3,6.1-1.3,7-4.3l10.2-32.3
		c0.9-3-0.7-6.3-3.3-7.5l-1.3-0.4C527.3,276.2,523.7,278.2,522.8,281.2z"/>
	<path id="XMLID_111_" class="st1" d="M556.7,304l-13.5,31c-1,2.3-0.4,6.6,2.5,7.8l1.8,0.8c2.9,0.6,6.2-0.6,7.4-3.5l13.5-31
		c1.3-2.9-0.1-6.3-2.5-7.8l-1.3-0.6C561.7,299.4,557.9,301.1,556.7,304z"/>
	<path id="XMLID_109_" class="st1" d="M551.2,228.5l-33.2,6.7c-2.5,0.5-5.6,3.5-5,6.5l0.4,1.9c1.1,2.7,4.1,4.7,7.1,4l33.2-6.7
		c3.1-0.6,5.2-3.7,5-6.5l-0.3-1.4C557.8,230,554.2,227.9,551.2,228.5z"/>
	<path id="XMLID_107_" class="st1" d="M584.2,235.8l-18.7,16.4c-1.4,1.2-1.9,4.7,0.2,7l1.3,1.5c2.2,1.9,5.2,2.6,7,1.1l18.7-16.4
		c1.7-1.5,1.5-4.7-0.1-7.1l-0.9-1.1C589.4,234.9,585.9,234.3,584.2,235.8z"/>
	<rect id="XMLID_106_" x="517.8" y="238.1" class="st1" width="36" height="57.9"/>
</g>
<g id="XMLID_102_">
	<ellipse id="XMLID_97_" class="st4" cx="1703.7" cy="463.2" rx="78.4" ry="78.5"/>
	<polyline id="XMLID_59_" class="st5" points="1652.2,488.1 1665.1,483.2 1695.2,493.8 	"/>
	<path id="XMLID_58_" class="st6" d="M1652.3,488.2c0,0,2.6,9.6,13.2,12.6c10.6,3,10.6,3,10.6,3l1.4,3.2c0,0,0.8,2,5.8-2.6
		s4.2-1.8,7.9-3.6s3-3.9,3-3.9l1-3.1"/>
	<path id="XMLID_197_" class="st6" d="M1743.8,478.6c0,0,1.3,0.3,6.4-0.6c5.1-1,8.6-1.7,12-4.3c2.9-3,3.5-5.1,3.7-6
		c0.2-0.9-0.3-2.2,0.2-2.6c0.6-0.3,1.6,0.3,1.9-2.4c0.6-2.1,1.6-6.5-0.5-13.3c-0.9-1.8-0.8-5.5-2.2-8.3s-0.7-6.7-8.3-13.2
		c-2.1-0.2-1.6-0.5-3.5-3.4c-2.2-1.9-4.3-4-7.1-5.1c-2.8-1.1-10.6-5.8-14.1-7.2c-3.5-1.5-3.4-1.5-13.3-2.6c-4.6-0.6-4.8-1.2-8.3-1.2
		c-3.7,1.6-4.3,1.6-7.1-0.2c0,0-1.3-0.4-10.2,0.1c-7.5,1.1-8.3,2.3-8.3,2.3s-1.2,0.7-4.3,1c-3,1.3-5.2,1.9-9.1,4.2
		c-1.7,2.4-1.2,2.1-2.6,2.5c-1.5,0.3-4.1,0.3-5.6,3c-2.1,2.4-1.6,0.8-4.2,3.5c-2.6,2.7-2.9,3.5-2.9,3.5s-0.5,1.9-1.4,1.6
		c-1,0.4-1.9,2-3,4.7c-1.1,2.7-2.1,4.1-4.2,5.3c-2.1,1.2-4.1,6.5-4.4,9.1c-0.6,2.1-2.7,6.1-3.8,9c-1.1,2.9-0.7,5.8-0.7,5.8
		s-0.8,2.6,0.7,6c-1,2.1,0.3,7.1,1.8,8.1c0,0,0.4,0.2,0.3,0.5c-0.1,0.3-0.5,1,0.2,2.4c0.6,1,0.4,1.4,0.4,1.4s1,3.3,5.8,4.9
		c4.9,1.5,3.3,1,3.7,1c0.5,0.1,1.1,0.8,2.9,1.1c1.7,0.3,6.3,1.7,9,0.7c2.7-1,2.9-0.7,4.5-0.9c1.6-0.2,4.8-0.8,4.8-0.8
		s1.4,1.2,5.1,1.2c0.4,0,1.7,1.2,5.4,2.5s3.7,1.2,6.9,0.9c2.2,0.8,9.3,1.8,10.6,2c0.8,0.6,3.5,3.2,6.8,4s3.7,0.8,3.7,0.8
		s4.6,2,9.5,0.7c4.9-1.3,5.9-1.6,9.9-4c2.1-0.7,5.1-1.5,5.5-3.7s0-2.8,1.5-3.9c1-0.6,2-2.4,1.9-3.8s-0.5-3.3-2.3-6.1
		c0,0-0.5-1,3.2-0.7c0.5-0.1,1.2,0.3,1.2,0.3S1743,478.5,1743.8,478.6z"/>
	<path id="XMLID_196_" class="st5" d="M1724.2,474.4c0.1,0.9,2.2,4,3.6,5.2c1.4,1.2,2.6,11.4-2.1,14.3c-4.6,2.9-5.2,2.7-6.3,3"/>
	<path id="XMLID_195_" class="st5" d="M1717.5,470.8c0,0,7.1,5.1,2.3,10.8"/>
	<path id="XMLID_194_" class="st5" d="M1715.7,479.2c0,0,4.4,7,1.2,8c-2.7,2.1-3.6,2.5-3.6,2.5"/>
	<path id="XMLID_193_" class="st5" d="M1701.6,485.5c0,0-1.8,4,1.8,4.1c2.6,1.1,4.5-0.2,6.5,0.5c2,0.7,9.7,3.5,9.7,3.5"/>
	<path id="XMLID_192_" class="st5" d="M1672,480.2c0,0,14.3,3.5,17.4,3.4c3.1-0.1,14.8-5.3,16-6.2"/>
	<path id="XMLID_191_" class="st5" d="M1703.7,486.9c0,0,1.3-6.4-0.1-8.5"/>
	<path id="XMLID_190_" class="st5" d="M1667.5,483.6c0,0,7.6,10,24.9,4.5c1,1.6,5.1,4.2,9.3,0.9"/>
	<path id="XMLID_189_" class="st5" d="M1703.8,494.8c0,0,3.5,0.2,6-2.8"/>
	<path id="XMLID_188_" class="st5" d="M1711.8,493.3c0,0,1.4,5.9,2.9,6.9"/>
	<path id="XMLID_187_" class="st5" d="M1643,479.2c0,0,5.1,1.1,6.6,1.3c1.4,0.2,5.2,5.1,11.2,1.8"/>
	<path id="XMLID_186_" class="st5" d="M1653.4,477.3c0,0,10.8,4.7,13.6,2.7c0.6-3,0.6-3,0.6-3"/>
	<path id="XMLID_185_" class="st5" d="M1676.2,485.4c0,0,3-2.1,4.2-3.3"/>
	<path id="XMLID_184_" class="st5" d="M1639.7,474c0,0-1.2,0.8,10.3-2.2"/>
	<path id="XMLID_183_" class="st5" d="M1640.9,463.1c0,0,2.9,0.2,5.4,0c1,0.5,1.3,2.6,2.2,1.4"/>
	<path id="XMLID_182_" class="st5" d="M1644.6,444.7c0,0,0,12,2.9,8.1"/>
	<path id="XMLID_181_" class="st5" d="M1665.4,436.6c0,0-4.9,2.5-9.1,2.6c-4.2,1.1-6.8,5-7.4,10.9c-0.6,5.9-0.3,10.7,1.6,13.9
		c1.6,3.1,2,5.6,4.1,5.8c2.2,0.1,2.2,0.1,2.2,0.1"/>
	<path id="XMLID_180_" class="st5" d="M1653.4,453c0,0,0-9.4,3.4-8c3.6-0.3,4.1,4.7,4.8,6.1c0.7,1.3,2.5,3.8,6.5,0.7
		c1.4-1.5,0.8-2.8,0.8-2.8"/>
	<path id="XMLID_179_" class="st5" d="M1664.3,442.6c0,0-1.8,4.4,4.5,4.6"/>
	<path id="XMLID_178_" class="st5" d="M1658.9,458.3c0,0-1.6,8.7,0.4,11.9c1.7,4,1.7,4,1.7,4"/>
	<path id="XMLID_177_" class="st5" d="M1656.9,451.6c0,0,4.8,8.9,5.6,11c0.8,2.1,10.9,4.5,14.1-4.6"/>
	<path id="XMLID_176_" class="st5" d="M1673.5,434.3c0,0,2.5-0.1,2.3,3.5c-0.2,3.6-0.5,9.9,1.3,18.6c2.9,6.7,7.9,14,11.8,15
		c3.4,0.5,6.1,0.3,8.4,0.7c2.4,0.4,3.8,1.1,5,1.5c1.2,0.4,9.8,0.1,12.3-2.5"/>
	<path id="XMLID_175_" class="st5" d="M1682.8,469.7c0,0-2.2,8.5,13.4,8.8"/>
	<path id="XMLID_174_" class="st5" d="M1687.2,440.3c0,0,1.3,16.7,5.2,17.6s7.8,0.6,11.8-3.1c1.2-1.1,1.3-4.4,0-5.6"/>
	<path id="XMLID_173_" class="st5" d="M1666.9,433.6c0,0,7.5-5.6,10-6c2.5-0.3,6,0.1,7.1,0.8c1.1,0.7,4.1,2.8,8.8,3
		c1.3,1.3,10.1,12.5,6.6,19.9"/>
	<path id="XMLID_172_" class="st5" d="M1703.6,458.1c0,0,13.6,14.4,23.6,9.7c2.3-0.8,1.4-2.4,1.7-5.3c0.3-3,0.9-8.5,0-9.2"/>
	<path id="XMLID_171_" class="st5" d="M1717.5,434.4c0,0,5.6,4.8,9.3,5.9c2.4,2,2.5,3.7,1.7,6.4c-0.7,2.7-0.7,7.4-2,10
		s-3.1,5.3-2,6.7"/>
	<path id="XMLID_170_" class="st5" d="M1723.2,441.2c0,0-2.2,9-5,10.6"/>
	<path id="XMLID_169_" class="st5" d="M1667.4,432.1c0,0-3.5-1-1-4.2c2.5-3.2,6.8-6.3,6.8-6.3"/>
	<path id="XMLID_168_" class="st5" d="M1667.7,419.4c0,0-1,6.8,2.5,4"/>
	<path id="XMLID_167_" class="st5" d="M1672.5,418.4c0,0,7.3-1.8,8.2-0.5s1.6,3.3,1.5,3.9"/>
	<path id="XMLID_166_" class="st5" d="M1686.1,411.9c0,0,0.9,2.7,5,3.1c2.3,1,2,2.4-1,5.2c-3,2.9-5.4,4-3.7,4.7
		c1.7,0.7,3.5,0.8,2.8-1.5c-0.3-1.5,1.7-3.1,4-2.1c2.3,1,10.1,4.7,11.8,7.2c1.7,2.5,2.2,4.9-0.9,6.9c-1.1,0.5,0.3,1.7,2.4,2
		s8.4,3,9.9,8s1.8,8.7-0.5,13.8c-0.9,2-0.3,2.2-0.3,2.2"/>
	<path id="XMLID_165_" class="st5" d="M1699,409.3c0,0-1.8,7.3,5.4,4.7s5.4-2.5,7.4-1.8"/>
	<path id="XMLID_164_" class="st5" d="M1717.5,409.3c0,0,3,0.6,2,4s-0.7,4.1-0.7,4.1"/>
	<path id="XMLID_163_" class="st5" d="M1720.3,414.4c0,0,6.9-1.1,8.3,0.3"/>
	<path id="XMLID_162_" class="st5" d="M1731.9,413.3c0,0,3.7,3.6,6.6,4.4c2.9,0.8,4.9,4.5,3,5.8"/>
	<path id="XMLID_161_" class="st5" d="M1709.7,414.5c0,0-3.1,2.2-0.9,5.3c2.2,3.2,3.2,7.7,3.1,8.8"/>
	<path id="XMLID_160_" class="st5" d="M1697.5,417.2c0,0,6.2,4.3,7.3,5.3c1.1,1,1.7,6.8,1.7,6.8"/>
	<path id="XMLID_159_" class="st5" d="M1703.7,414.5c0,0-2.4,3.6-2,5"/>
	<path id="XMLID_158_" class="st5" d="M1706.4,431.2c0,0,5-5.1,8.3-3.4s4.5,2,4.7,3.6"/>
	<path id="XMLID_157_" class="st5" d="M1730.9,440.1c2.1-1.4,5.8-3.8,5.5-7c1.2-3.6-1.6-7.8-3-9.1c-1.3-1.3-4.4-6.4-11.9-4.6
		s-9.8-1.8-9.8-1.8"/>
	<path id="XMLID_156_" class="st5" d="M1725.9,421.5c0,0,2.2,10.8,0.2,13.1"/>
	<path id="XMLID_155_" class="st5" d="M1720.3,430.3c0,0-3.4-4.5-4.8-5.3c0,0,0,0.7-1.4-3.5c-2.3-4-2.3-4-2.3-4"/>
	<path id="XMLID_154_" class="st5" d="M1733.9,421.6c0,0,4.3,0.7,9.9,5.2c2.1,2.1,1.1,2.7-1.1,3.6c-2.3,0.9-5.1,1.7-2.2,2.1
		s6.9,0.1,8.5,3.3c1.6,3.2,1.3,4.1,0.3,7.2"/>
	<path id="XMLID_153_" class="st5" d="M1747.9,421.5c0,0,5.4,5,3.3,7.5c-1.2,3.4-1.4,3.8-2.9,4.5"/>
	<path id="XMLID_152_" class="st5" d="M1752.1,431.1c0,0,3.4,1.3,4,2.8c1,0.9,6.4,4.4,6,5.8"/>
	<path id="XMLID_151_" class="st5" d="M1732.4,452c0,0,0.1-10.3,5.8-12.4c4.3-0.5,6.2-3.4,5.3-5.1"/>
	<path id="XMLID_150_" class="st5" d="M1751.6,440.2c0,0,4.1-2,6.8-0.3c2.7,1.6,3.1,2,3.8,1.3"/>
	<path id="XMLID_149_" class="st5" d="M1762.9,441.5c0,0,1.5,3.4,3.6,3.2"/>
	<path id="XMLID_148_" class="st5" d="M1763.1,451.3c0,0,3.3,0.1,4.5-1.9"/>
	<path id="XMLID_147_" class="st5" d="M1736.6,445c0,0,4.1,0.2,9.9-2.3c2,0.1,3.7,3,3.9,6.2"/>
	<path id="XMLID_146_" class="st5" d="M1753.4,466.7c0,0,7.6-0.4,10.5-3.7c2.9-3.3,3.8-6,0-10.1c-3-4.2-1.4-3.1-4.7-6.8
		c-2.1-2.3-1.7-2.3-4.7-0.2c-3.8,0.9-4.2,0.5-4.2,0.5"/>
	<path id="XMLID_145_" class="st5" d="M1760,449.6c0,0-5.5,2.7-4.1,3c1.4,0.3,3.8,0.4,6.9,5.1"/>
	<path id="XMLID_144_" class="st5" d="M1730.4,451.7c0,0,13.7,6.9,18.1,6.7s5.6-0.6,6.5-2"/>
	<path id="XMLID_143_" class="st5" d="M1731.9,461.1c0,0,2.1,1.8,0.6,6.2c-2.1,2.1,0.8,2,4.4,0.9c3.6-1,5.2-2.2,5.2-2.2"/>
	<path id="XMLID_142_" class="st5" d="M1739.4,461c0,0,5.2-4.9,6.9-1.6c1.6,3.3,3.4,6.5,5.8,7.1c2.4,0.6,1.4,2.1-0.1,3.8
		c-1.5,1.7-2.7,3.4-4.9,3.7c-2.3,0.3-6.2,0.7-6.6,0.6"/>
	<path id="XMLID_141_" class="st5" d="M1752.2,476.7c0,0,2.9-0.3,7-5.9c0.7,0.6,3.4,0.8,4.5-0.8"/>
	<path id="XMLID_140_" class="st5" d="M1750,463.1c0,0,5.4-0.6,7.3-2.8c1.3-2.8,1.3-2.3,1.3-2.3"/>
	<path id="XMLID_139_" class="st5" d="M1676.9,448.7c0,0,7.4,5.6,10.3,5.5c2.2,1.2,2.5,0.7,2.3,1.7"/>
	<path id="XMLID_138_" class="st5" d="M1677.9,457.8c0,0,7.7-4.7,11-3.5"/>
	<path id="XMLID_137_" class="st5" d="M1700.1,446.4c0,0,3.1-4.3,5.4-3.1c4.2,0.1,4.5-0.3,4.5-0.3"/>
	<path id="XMLID_136_" class="st5" d="M1695.1,453.2c0,0,2.7,1.6,5.3-1.4"/>
	<path id="XMLID_135_" class="st5" d="M1660.7,466c0,0,3.1,5.8,4.8,7s6.2,3.4,10.6,2.4c4.4-1,6.7-1.5,6.7-1.5"/>
	<path id="XMLID_134_" class="st5" d="M1729.5,488.6c0,0,6.1-1.2,6,0"/>
</g>
<ellipse id="XMLID_96_" class="st4" cx="948" cy="130.1" rx="78.4" ry="78.5"/>
<path id="XMLID_60_" class="st7" d="M964.1,206.3c-1.8-5,0.3-15.8,6-37.2c4.8-22.9-11.6-60-19.3-71.1s-14.1-43.5-14.1-43.5l-4.3,0.3
	c0,0,5,27.4,5.3,30.4c0.3,3,4.5,34.7,3.5,42.2c-1,7.5,1.8,39.9,8.5,50.7c6.8,10.8,8.8,19.8,8.5,26.1l-0.1,2.3L964.1,206.3z"/>
<path id="XMLID_74_" class="st8" d="M935.9,55.1c0,0,6.4,29.2,8.7,34.2s16.5,32.9,17.1,36.2c1.3,2.9,9.2,23,7.3,32.2
	c-0.6,8.8-3.6,22.3-4.7,27.9c-1.1,5.5-1.9,21.1-1.9,21.1"/>
<path id="XMLID_73_" class="st8" d="M932.7,56.5c0,0,4.1,17,5,20.8c0.9,3.8,3.1,18.7,3.1,18.7s3.1,20.9,2.8,27.9
	c-0.3,6.9-0.2,31.3,3.3,41.4c2.2,10.7,9.9,23.4,9.9,23.4s2.5,3.8,2.5,6.6s0.6,9.9,0,11.3"/>
<path id="XMLID_72_" class="st8" d="M934.6,55c0,0,2.4,11,3.1,13.5s5.7,22,6.5,23.2c0.8,1.2,10,20.6,10.3,21.5
	c0.3,0.9,8.8,18.8,10.8,28.9s3.2,13.8,1.6,23.7c-1.7,9.9-4.3,21.3-4.5,24c-0.2,2.7-0.8,12-0.7,16.8"/>
<path id="XMLID_71_" class="st8" d="M933.4,55l6.7,27.5c0,0,3,12.6,3.6,21.6c0,0,1.9,15.2,1.9,16.8c0,1.6-0.2,24.3,0.9,30
	s1.5,19.2,7,27.5c4.3,8.6,5.6,9.5,6.3,11.9c0.7,2.4,1.6,10.5,1,16.3"/>
<path id="XMLID_70_" class="st8" d="M943.1,92c0,0,15.1,32.5,15.6,36.4c0.5,3.9,8,14.9,6.7,28.3s-2.9,27.8-4,30.6"/>
<path id="XMLID_69_" class="st8" d="M943.8,97c0,0,3.7,15.7,3.4,20.2c-0.4,4.5,0.2,19.3,0.2,19.3s0.1,19.3,4.2,32.3
	c3.6,10.7,6.1,13.3,7.1,16.8"/>
<path id="XMLID_68_" class="st8" d="M945.5,100.1c0,0,9.5,23,11.2,28.1c1.7,5.1,6.8,17.3,6.7,26.5c-0.1,9.2-1.2,23.8-2.9,29.8"/>
<path id="XMLID_67_" class="st8" d="M948.1,108.8c0,0,9,25,9.6,26.9c0.6,1.9,5.2,12.2,4.1,26.4c-1.1,14.2-2,20.3-2,20.3"/>
<path id="XMLID_66_" class="st8" d="M946.1,104.3c0,0,2.9,13.1,2.5,22.7c-0.4,9.6,2.1,33.9,3.1,34.9c1,1,4.1,15.6,6.4,18.1"/>
<path id="XMLID_65_" class="st8" d="M958.7,176.4c0,0,2.4-9.7,1.2-20.3c-1.1-10.6-1-12.7-3-18.9c-2-6.2-6.7-18.2-6.7-18.2"/>
<path id="XMLID_64_" class="st8" d="M948.8,114.3l2,30.1c0,0,1.6,17.3,4.2,23c2.6,5.7,2.9,7.3,2.9,7.3"/>
<path id="XMLID_63_" class="st8" d="M951.1,124.9c0,0,3.9,41.2,5.9,43.3"/>
<path id="XMLID_62_" class="st8" d="M952.4,129.1c0,0,6.6,17.8,5.6,33.4c0,9.7,0,9.7,0,9.7"/>
<path id="XMLID_61_" class="st8" d="M953.8,138.3c0,0,3.4,19.1,2.9,23"/>
<g id="XMLID_75_">
	<text id="XMLID_242_" transform="matrix(1 0 0 1 1244.6931 99.8778)" class="st9 st10">ANABOLIC STEROIDS</text>
</g>
<g id="XMLID_89_">
	<text id="XMLID_247_" transform="matrix(1 0 0 1 1244.6934 144.2524)" class="st11 st12">Stimulate muscle size and strength</text>
</g>
<g id="XMLID_99_">
	<text id="XMLID_249_" transform="matrix(1 0 0 1 1444.363 641.6046)" class="st9 st10">STIMULANTS</text>
</g>
<g id="XMLID_98_">
	<text id="XMLID_246_" transform="matrix(1 0 0 1 1444.363 691.8371)"><tspan x="0" y="0" class="st11 st12">Eliminate fatigue and improve</tspan><tspan x="0" y="37.2" class="st11 st12">their reaction time</tspan></text>
</g>
<g id="XMLID_95_">
	<text id="XMLID_243_" transform="matrix(1 0 0 1 368.8775 680.0883)"><tspan x="0" y="0" class="st9 st10">BLOOD DOPING</tspan><tspan x="0" y="43.2" class="st9 st10">&amp; EPO</tspan></text>
</g>
<g id="XMLID_94_">
	<text id="XMLID_248_" transform="matrix(1 0 0 1 364.8099 765.5507)"><tspan x="0" y="0" class="st11 st12">Increase the production </tspan><tspan x="0" y="37.2" class="st11 st12">of red blood cells and </tspan><tspan x="0" y="74.4" class="st11 st12">improve aerobic capacity</tspan></text>
</g>
<g id="XMLID_201_">
	<text id="XMLID_244_" transform="matrix(1 0 0 1 38.9017 641.7314)" class="st11 st13">Runner</text>
</g>
<g id="XMLID_205_">
	<text id="XMLID_240_" transform="matrix(1 0 0 1 289.9219 93.7966)" class="st11 st13">Weight lifters</text>
</g>
<g id="XMLID_206_">
	<text id="XMLID_235_" transform="matrix(1 0 0 1 331.2286 274.8182)" class="st11 st13">Sprinters</text>
</g>
<g id="XMLID_211_">
	<text id="XMLID_236_" transform="matrix(1 0 0 1 1436.3632 963.1238)" class="st11 st13">Baseball player</text>
</g>
<g id="XMLID_209_">
	<text id="XMLID_238_" transform="matrix(1 0 0 1 1681.6409 963.1237)" class="st11 st13">Cyclists</text>
</g>
<g id="XMLID_204_">
	<text id="XMLID_237_" transform="matrix(1 0 0 1 37.8014 903.74)" class="st11 st13">Cyclists</text>
</g>
<g id="XMLID_100_">
	<ellipse id="XMLID_116_" class="st4" cx="490.8" cy="536.7" rx="78.4" ry="78.5"/>
	<path id="XMLID_87_" class="st14" d="M510.8,530.6c6.6,12,1.9,21.9-9,29.5c-14.7,10.4-29,1.6-33-4.7c-5.2-8.2-2.8-20.8,8.6-28.6
		C488.8,519.1,506,521.8,510.8,530.6z"/>
	<path id="XMLID_86_" class="st14" d="M453.3,493.8c0,0,13.6-5.2,25.9,2.4c7.9,7.2,9.5,17.9-4,26.6c-13.5,8.6-27.6,2.1-30.6-0.2
		s-4.9-5.5-4.9-5.5s-6.9-14.5,13.2-23.1c0.2-0.1,0.4-0.2,0.7-0.3"/>
	<path id="XMLID_85_" class="st14" d="M507.2,523.4c0,0-9,1.1-14.2-3.9c-5.3-4.9-1.6-12,3.5-16c5.1-4,16.5-10.9,31.8-9.5
		c15.3,1.4,12.7,13.2,11.4,13.7c-1.2,2.5-5.6,9.3-18.1,13.5C509.1,524.7,507.2,523.4,507.2,523.4z"/>
	<path id="XMLID_84_" class="st14" d="M510.8,530.6c0,0-1-1.7,7.1-1.5c8.1,0.2,24.6,8.8,28.7,13.7c4,4.9,7.7,16-1.9,18.3
		c-9.7,2.3-21.1-0.5-26.4-4.4c-5.3-3.9-7-6.5-7-6.5"/>
	<path id="XMLID_83_" class="st14" d="M466,547.7c0,0-17.9-17.1-31.5-5.6c-6.2,8.6-3,20.2,6.9,29.9c9.9,9.7,20.8,8.3,22.9,7.6
		c2.1-0.7,15.5-6.9,9-17.8"/>
	<path id="XMLID_82_" class="st14" d="M446.6,548.2c0,0-1.9,5.6,6.3,10.6c8.3,4.9,13.9,4.6,15.8,1.9"/>
	<path id="XMLID_81_" class="st14" d="M498.7,587.1c0,0-18.8-4.9-11.6-17.4c4.2-5.1,16.2-10,28.7-8.4c12.5,1.6,22.3,7.9,20.8,15
		c-1.6,7-8.3,9.3-14.8,11.4S502.9,589,498.7,587.1z"/>
	<path id="XMLID_80_" class="st14" d="M498.9,566.5c0,0,1.4,7.4,17.2,3.5c6.3-0.7,9-1.9,8.3-4"/>
	<path id="XMLID_79_" class="st14" d="M478.7,544.9c0,0,3.5,6.7,16.2-0.5c0,0,8.4-4.9,6.9-10"/>
	<path id="XMLID_78_" class="st14" d="M519.3,529.8c0,0-1.4,4.7,4.7,9c6.2,4.2,15.5,8.6,19.5,5.5"/>
	<path id="XMLID_77_" class="st14" d="M498.9,503.4c0,0,2.5,4.9,19.7-0.2c4.2-1.2,8.8-3.9,9-6.2"/>
	<path id="XMLID_76_" class="st14" d="M447.9,503c0,0,1.2,6.3,14.6,4.2c7.6-1.4,10.2-4.4,10.9-8.4"/>
</g>
<line id="XMLID_104_" class="st15" x1="1130.4" y1="468.9" x2="1125.2" y2="125.3"/>
<line id="XMLID_88_" class="st15" x1="875.8" y1="691.4" x2="584.6" y2="547"/>
<line id="XMLID_101_" class="st15" x1="1044.6" y1="115.7" x2="1199.1" y2="115.7"/>
<line id="XMLID_132_" class="st15" x1="1314.4" y1="458.6" x2="1616.1" y2="458.6"/>
<image style="overflow:visible;" width="1058" height="618" id="XMLID_2_" xlink:href="../../../Desktop/Screen Shot 2017-04-03 at 9.29.14 AM.png"  transform="matrix(0.8251 0 0 0.8934 2734.147 332.3954)">
</image>
<g id="XMLID_90_">
	<text id="XMLID_245_" transform="matrix(1 0 0 1 1288.9564 185.3158)" class="st11 st13">Stanozolo</text>
</g>
<g id="XMLID_91_">
	<text id="XMLID_241_" transform="matrix(1 0 0 1 1288.9565 224.9045)" class="st11 st13">Norandroterone</text>
</g>
<g id="XMLID_92_">
	<text id="XMLID_234_" transform="matrix(1 0 0 1 1288.9794 264.4935)" class="st11 st13">Testoterone</text>
</g>
<g id="XMLID_93_">
	<text id="XMLID_239_" transform="matrix(1 0 0 1 1288.9561 304.0825)" class="st11 st13">Clenbuterol</text>
</g>
<circle id="XMLID_214_" class="st16" cx="1257.5" cy="176.6" r="10.2"/>
<circle id="XMLID_215_" class="st16" cx="1257.5" cy="216.3" r="10.2"/>
<circle id="XMLID_217_" class="st16" cx="1257.5" cy="255.9" r="10.2"/>
<circle id="XMLID_216_" class="st16" cx="1257.5" cy="295.6" r="10.2"/>
<line id="XMLID_118_" class="st15" x1="847.3" y1="135.7" x2="654" y2="52.3"/>
<line id="XMLID_119_" class="st15" x1="853.4" y1="182.5" x2="652" y2="274"/>
<line id="XMLID_122_" class="st15" x1="324.4" y1="665.8" x2="164.4" y2="519.2"/>
<line id="XMLID_121_" class="st15" x1="322.3" y1="725" x2="180.6" y2="812.1"/>
<path id="XMLID_1_" class="st17" d="M994.1,723.3c0,0-19.7,20.2-23.2,24.7s-21.4,21.6-30.1,25.8s-18.3,10.8-22.8,13.9
	s-27,18.8-29.4,20.2c-2.3,1.4-7.5,6.8-16.7,12.4s-19.7,8.5-25.8,13.9s-10.1,6.1-14.1,11s-22.8,26.8-32.4,35.5
	c-9.6,8.7-28.9,26.5-35.7,34.8c-6.8,8.2-24.9,31.2-28.9,39c-4,7.7-4,7.7-4,7.7v2.8c0,0-1.9,1.6-4.5,5.2
	c-2.6,3.5-15.1,28.4-15.1,28.4s-4.6,11-5.1,14.3c-0.5,3.3,3.1,19,0.7,22.5c-2.3,3.5-7.7,7-10.8,7s-8.2-5.9-8.2-9.6
	c0-3.8-3.8-10.6-7.5-20.4c-3.8-9.9,0.5-31.2,2.3-43.4s-3.5-29.6-4.5-36.6c-0.9-7-1.2-11.5,5.9-14.6c7-3.1,16.4-1.4,19.3-1.6
	c2.8-0.2,5.9-5.6,9.4-6.1l4.5-1c0,0,15.4-15.4,32-42.4c10-16,9.7-11.7,11-17.4s6-22.4,13.3-29.7s24-21.4,41-31.4s24-17,30.4-24.7
	s10-10.7,12.3-22.7s26-43,34.4-49.1s25-19,27.4-24.4s9.7-21.7,9.7-29s10.7-24.7,38.7-44.7c4.3-4,4.7-4.3,6.3-7.3c1.7-3,8.7-6,11-5.3
	s6.3-5.3,10-5.7c3.3-4,4-6,7-9.3s33-31.7,43-35.7c8-6.3,45.7-39.4,69.1-52.4l-14.3-13c-8.3-7-17.4-15-21-21c-3.7-6-8.7-14-11.3-14.3
	c-2.7-0.3-29.7,1.3-40.7,0c-3.7,0-19.4-5-33-3.3c-13.7,1.7-45.1,5.7-49.7,7.3c-4.7,1.7-4.3-0.7-10.7,5.3c-6.3,6-20.7,7.7-22.7,5.3
	c-3.3-0.3-11.3,0-16.4,2.7c-5,2.7-8.7-0.7-6.7-7.3s11.8-5.4,14.2-5.4c0,0,2.4,0.4,2.2-0.6c-0.6-3.8-6.6-8.7-13.9-11
	c-7.3-2.3-13.6-1.9-16.1-3.6s-15.9-7.5-17.8-9c-1.9-1.5-1.5-6.3,1.7-6.1c7.1,1,9.4,2.3,13,3.3s6.5,1.3,12.1,2.9
	c5.6,1.7,9,0.4,8.8-1.7s-4.4-2.7-9.6-5c-5.2-2.3-20.3-11.7-22.4-15.1c-2.1-3.3-0.8-6.3,3.6-6.3c4,3.6,14.9,8.2,19.9,10.3
	c5,2.1,15.6,6.6,15.6,6.6c1.1-0.6-3.7-3.3-3.7-3.3c-2.1-1.9-20.5-9.7-24.4-12s-2.1-7.3,0-8.4c2.1-1,12.6,5.4,18.4,8
	c5.8,2.5,9.4,7.3,11.5,6.7c2.1-0.6,1.5-0.5-0.5-3.8s-8.7-7.3-11-13.3c4-7,11.3,3.3,18.4,10s10.7,8.3,19.7,10.3s14.3,8.7,14.3,8.7
	s7.3,0.4,11,0s18.8-6.9,37.9-10.2s41.6-4.6,54.4-4c12.8,0.6,27.4-4.1,30.8-1.4c3.3,2.7,28.5,15.8,31.2,16.9
	c2.7,1,21.3,11.9,25.7,14.6s25.2,15.8,36.5,24.8c12.2,4.1,23.6,13.1,27.7,19c6.2,1.6,12.2,4,14.6,3.9s5.1-2.6,7.6,0h2.2
	c0,0,6.5-0.6,10.3-3.1s7-7,11.1-12.2s20.6-26.8,34.6-27.3c14.1-0.5,35.2,2.7,47.6,17.3c3,3.9,0.5,4.9,4.6,6.2
	c3.5,3.5,4.6,5.4,4.1,10c0.1,3.5,1.9,5.9,3.5,7.3c0,3.2-0.8,5.9,1.4,9.2c2.2,3.2,2.4,6.2,1.6,7.8s-4.1,7.8-6.2,11.9
	s-5.4,5.9-6.5,6.2s-3,6.2-8.1,10.5s-8.1,10-11.1,11.9s-10.3,0.8-12.7,4.3c-2.4,3.5-5.4,8.4-5.1,11.4s-4.9,4.3-6.8,3
	c-1.9-1.4-5.1-6.2-5.9-5.1s-3.9,4.6-6.2,4.6c-2.3,0-5.7-5.1-6.6-4.2c-0.9,0.9-1.1,2.2-1.4,4.1c-0.3,1.9-2.4,3.8-4.7,3
	c-2.3-0.8-3.8-1-4.8,1.5s-3.7,3.3-7.6,2.7s-10.9-12.8-11.8-14.5c-0.9-1.6-1.6-2.8-6.6-2.3s-4.9,0.9-4.6,2.8
	c0.4,1.9,2.5,12.9,1.5,21.3c-1,8.4-5.1,12-1,21.4c4,9.5,7.1,27.2,5.6,34.5s-2.1,15.3-0.6,14.6s22.3-9.2,25-10.4s23.8-16.8,30.8-20.8
	s11-10.7,12.5-14.6c1.5-4,5.8-18,11.3-21.4c3.7-9.5,6-11.4,6-13.9c1-3.3,3.7-2.7,5,0.2s2.3,6.7,0.4,10.2s-4.8,7.7-2.9,9.4
	s8.5,2.1,12.3,1.5s5.2-2.3,7.1-3.7c1.9-1.3,9.8-7.9,17.3-10s8-1.6,8.7-0.3s2.1,2.6,0,4.1s-3.9,1.6-5.3,2.6c-1.4,0.9-5.3,3.2-8.1,5.4
	c-2.8,2.2-6,4.2-6.8,6s0.7,2,1.8,1.2s7.7-6.6,10.8-7.6c3-1.1,12.8-6.2,13.7-6.6c0.9-0.4,5,0.4,5,2.9s-1.5,3.4-3.8,4.1
	c-2.2,0.7-12.7,7.4-15.5,9.4s-8.2,5.3-8.1,5.9c0.1,0.6,1.8,1.3,3.6,0.6c1.9-0.7,6.8-2.5,11.4-3c4.6-0.6,11.4-3.8,12.3-1.8
	s2.8,4.8,0,5.9c-2.8,1.1-9.4,2.9-12.3,3.9s-5.2,1.6-7.6,1.8c-2.5,0.1-4.7,0.5-7.3,2.5c-2.6,2-0.1,5.5,2.3,6.8
	c2.5,1.3,10.2,5.6,11.8,6.7c1.6,1.1,4.5,2,5.2,4.5s-0.7,3.8-2.8,3.4c-2.1-0.4-21.3-9.6-23.4-10.3c-2.7,0.6-8.8,4.3-15.2,5
	s-7.9,0.9-12.5,2.8c-4.7,1.9-6.7,1.6-12,6.1s-14.3,16.2-25.1,24.7c-10.8,8.6-33.4,23.8-37.3,26s-20.4,13.8-23.2,15.6
	s-4.9,3.5-10.6-1.8s-10.9-10-12.9-18.1s-8.2-30.1-9.5-33.8c-1.3-3.6-6.4-18.3-7-23.3s0-6.9-3.6-5.6c-3.6,1.3-9.3,4.5-15.7,8.5
	s-23.7,13.4-29.2,15.3c-5.5,1.9-23.7,12.8-30.1,16.6c-6.4,3.7-15.6,10-17,11.1l2.2,1.8c0,0,9.3,7.2,25.1,22.4
	c15.8,15.2,32.8,33,40.5,45c7.7,12,16.2,21.8,19.7,24.7c3.5,2.8,6.6,11.5,7.3,18.8c0.7,7.3,6.3,16,0.9,24.4
	c-5.4,8.5-14.8,20-29.6,28.2c-14.8,8.2-15.7,9.9-25.8,18.3c-10.1,8.5-35,24.2-43.4,29.6c-8.5,5.4-38,24.7-47.9,37.6v4
	c-1.6,4.9-4.7,8.9-4.2,11.5s-2.3,4.5-1.4,6.3c0.9,1.9,3.1,7.7,4,13.2c0.9,5.4,5.4,8.9,4.2,16c0,0,1.6,2.3,1.4,4.5
	c-0.2,2.1-0.7,3.8,1.9,6.6s4.7,6.6,8.5,8.2c3.8,1.6,8.2,4.2,7.7,7.7s0,9.4-2.3,10.6c-2.3,1.2-5.9,3.1-9.4,2.6s-22.1-7-28.7-12.7
	s-11.5-9.9-17.4-18.3c-5.9-8.5-11.7-19.5-20.2-26.5s-18.1-19.2-18.8-23.3c-0.7-4.2,2.8-13.1,8.9-17.1l24.9-14.6
	c0,0,14.8-10.6,23-18.8s24-25.4,25.8-28.4c1.8-3,14.1-25.8,27.7-37.1c13.6-11.3,15-10.6,18.8-12.4c3.8-1.8,21.6-8,20.1-8.7
	s-11.4-5.4-15.6-7.7s-15.5-8.2-24.7-10.8c-9.2-2.6-31.2-14-35-15.3C1022.5,736.7,1006.1,734.6,994.1,723.3"/>
</svg>
